<?xml version="1.0" encoding="UTF-8" standalone="no"?>
<svg
   xmlns:dc="http://purl.org/dc/elements/1.1/"
   xmlns:cc="http://creativecommons.org/ns#"
   xmlns:rdf="http://www.w3.org/1999/02/22-rdf-syntax-ns#"
   xmlns:svg="http://www.w3.org/2000/svg"
   xmlns="http://www.w3.org/2000/svg"
   xmlns:sodipodi="http://sodipodi.sourceforge.net/DTD/sodipodi-0.dtd"
   xmlns:inkscape="http://www.inkscape.org/namespaces/inkscape"
   enable-background="new 0 0 128 128"
   height="128px"
   id="Layer_1"
   version="1.1"
   viewBox="0 0 128 128"
   width="128px"
   xml:space="preserve"
   inkscape:version="0.48.4 r9939"
   sodipodi:docname="info.svg"><metadata
     id="metadata19"><rdf:RDF><cc:Work
         rdf:about=""><dc:format>image/svg+xml</dc:format><dc:type
           rdf:resource="http://purl.org/dc/dcmitype/StillImage" /><dc:title></dc:title></cc:Work></rdf:RDF></metadata><defs
     id="defs17" /><sodipodi:namedview
     pagecolor="#ffffff"
     bordercolor="#666666"
     borderopacity="1"
     objecttolerance="10"
     gridtolerance="10"
     guidetolerance="10"
     inkscape:pageopacity="0"
     inkscape:pageshadow="2"
     inkscape:window-width="1920"
     inkscape:window-height="1018"
     id="namedview15"
     showgrid="false"
     inkscape:zoom="1.84375"
     inkscape:cx="65.084746"
     inkscape:cy="64"
     inkscape:window-x="0"
     inkscape:window-y="27"
     inkscape:window-maximized="1"
     inkscape:current-layer="Layer_1" /><g
     id="g3"
     style="fill:#707668;fill-opacity:1"><g
       id="g5"
       style="fill:#707668;fill-opacity:1"><path
         d="M64,0C28.656,0,0,28.656,0,64s28.656,64,64,64s64-28.656,64-64S99.344,0,64,0z M64,120    C33.125,120,8,94.875,8,64S33.125,8,64,8s56,25.125,56,56S94.875,120,64,120z"
         fill="#B0BEC5"
         id="path7"
         style="fill:#707668;fill-opacity:1" /></g></g><g
     id="g9"
     style="fill:#8cb4b4;fill-opacity:1"><g
       id="g11"
       style="fill:#8cb4b4;fill-opacity:1"><path
         d="M64,48c-4.414,0-8,3.586-8,8v40c0,4.414,3.586,8,8,8s8-3.586,8-8V56C72,51.586,68.414,48,64,48z M64,40    c4.414,0,8-3.586,8-8s-3.586-8-8-8s-8,3.586-8,8S59.586,40,64,40z"
         fill="#03A9F4"
         id="path13"
         style="fill:#8cb4b4;fill-opacity:1" /></g></g></svg>