<?xml version="1.0" standalone="no"?>
<!DOCTYPE svg PUBLIC "-//W3C//DTD SVG 20010904//EN"
 "http://www.w3.org/TR/2001/REC-SVG-20010904/DTD/svg10.dtd">
<svg version="1.0" xmlns="http://www.w3.org/2000/svg"
 width="100.000000pt" height="71.000000pt" viewBox="0 0 100.000000 71.000000"
 preserveAspectRatio="xMidYMid meet">
<metadata>
Created by potrace 1.13, written by Peter Selinger 2001-2015
</metadata>
<g transform="translate(0.000000,71.000000) scale(0.100000,-0.100000)"
fill="#000000" stroke="none">
<path d="M307 502 c-75 -75 -137 -142 -137 -147 0 -6 62 -72 138 -148 l137
-137 143 143 c141 142 143 143 123 161 -11 10 -18 23 -15 28 3 5 -3 4 -15 -4
-19 -12 -27 -7 -98 64 l-78 76 -35 -23 c-40 -27 -53 -29 -78 -14 -14 9 -26 8
-53 -6 -29 -15 -24 -7 36 54 38 39 71 71 73 71 1 0 32 -30 67 -67 36 -37 65
-62 65 -56 0 6 8 14 18 17 11 3 10 4 -5 3 -15 -1 -42 18 -85 60 l-63 63 -138
-138z m403 -145 c0 -1 -60 -62 -133 -135 l-132 -132 -135 135 -135 135 268 0
c147 0 267 -1 267 -3z"/>
</g>
</svg>
