<?xml version="1.0" encoding="UTF-8" standalone="no"?>
<svg
   xmlns:dc="http://purl.org/dc/elements/1.1/"
   xmlns:cc="http://creativecommons.org/ns#"
   xmlns:rdf="http://www.w3.org/1999/02/22-rdf-syntax-ns#"
   xmlns:svg="http://www.w3.org/2000/svg"
   xmlns="http://www.w3.org/2000/svg"
   xmlns:sodipodi="http://sodipodi.sourceforge.net/DTD/sodipodi-0.dtd"
   xmlns:inkscape="http://www.inkscape.org/namespaces/inkscape"
   version="1.1"
   x="0px"
   y="0px"
   viewBox="0 0 100 125"
   enable-background="new 0 0 100 100"
   xml:space="preserve"
   id="svg2"
   inkscape:version="0.48.4 r9939"
   width="100%"
   height="100%"
   sodipodi:docname="temp.svg"><metadata
     id="metadata16"><rdf:RDF><cc:Work
         rdf:about=""><dc:format>image/svg+xml</dc:format><dc:type
           rdf:resource="http://purl.org/dc/dcmitype/StillImage" /></cc:Work></rdf:RDF></metadata><defs
     id="defs14" /><sodipodi:namedview
     pagecolor="#ffffff"
     bordercolor="#666666"
     borderopacity="1"
     objecttolerance="10"
     gridtolerance="10"
     guidetolerance="10"
     inkscape:pageopacity="0"
     inkscape:pageshadow="2"
     inkscape:window-width="640"
     inkscape:window-height="480"
     id="namedview12"
     showgrid="false"
     inkscape:zoom="1.888"
     inkscape:cx="50"
     inkscape:cy="62.5"
     inkscape:window-x="0"
     inkscape:window-y="27"
     inkscape:window-maximized="0"
     inkscape:current-layer="svg2" /><g
     id="g4"
     style="fill:#ffffff"
     transform="translate(0.52966102,11.652542)"><path
       d="M 60.333,68.349 V 11.111 C 60.333,4.984 55.349,0 49.222,0 43.096,0 38.111,4.984 38.111,11.111 v 57.237 c -4.15,3.323 -6.667,8.397 -6.667,13.874 0,9.802 7.975,17.777 17.777,17.777 C 59.024,100 67,92.024 67,82.223 67,76.746 64.482,71.672 60.333,68.349 z M 44.778,48.363 h 4.444 V 43.919 H 44.778 V 35.03 h 4.444 v -4.444 h -4.444 v -8.889 h 4.444 v -4.444 h -4.444 v -6.142 c 0,-2.455 1.99,-4.444 4.444,-4.444 2.455,0 4.445,1.989 4.445,4.444 v 41.111 h -8.889 v -3.859 z"
       id="path6"
       style="fill:#ffffff"
       inkscape:connector-curvature="0" /></g></svg>